<svg xmlns="http://www.w3.org/2000/svg" xmlns:xlink="http://www.w3.org/1999/xlink" fill="none" version="1.1" width="36" height="36" viewBox="0 0 36 36"><g style="mix-blend-mode:passthrough"><g><g style="mix-blend-mode:passthrough"><rect x="0" y="0" width="36" height="36" rx="0" fill="#D8D8D8" fill-opacity="0"/></g><g style="mix-blend-mode:passthrough"><g><g style="mix-blend-mode:passthrough"><path d="M6,27.5C6,28.6046,6.895431,29.5,8,29.5L28,29.5C29.1046,29.5,30,28.6046,30,27.5L30,10.590910000000001C30,9.48634,29.1046,8.590910000000001,28,8.590910000000001L19.8261,8.590910000000001L15.91304,6.5L8,6.5C6.895431,6.5,6,7.395431,6,8.5L6,27.5Z" fill="#EB9B00" fill-opacity="1"/></g><g style="mix-blend-mode:passthrough"><path d="M6,27.499972510528565C6,28.604572510528566,6.895431,29.499972510528565,8,29.499972510528565L28,29.499972510528565C29.1046,29.499972510528565,30,28.604572510528566,30,27.499972510528565L30,11.727272510528564L6,11.727272510528564L6,27.499972510528565Z" fill="#FFC82C" fill-opacity="1"/></g><g style="mix-blend-mode:multiply"><rect x="6" y="25.318180084228516" width="24" height="1.045454502105713" rx="0" style="mix-blend-mode:multiply" fill="#FCBC17" fill-opacity="0.3400000035762787"/></g></g></g></g></g></svg>