<svg width="90" height="32" viewBox="0 0 90 32" fill="none" xmlns="http://www.w3.org/2000/svg">
<path fill-rule="evenodd" clip-rule="evenodd" d="M61.1543 3.64899H56.4476V2.68687C56.4476 2.12569 55.9963 1.67068 55.4393 1.67068C54.8827 1.67068 54.431 2.12569 54.431 2.68687V3.64899H43.5178V2.68687C43.5178 2.12569 43.0665 1.67068 42.5099 1.67068C41.9529 1.67068 41.5016 2.12569 41.5016 2.68687V3.64899H36.7873C36.2311 3.64899 35.78 4.10367 35.78 4.66452C35.78 5.22506 36.2311 5.67974 36.7873 5.67974H39.8863H41.9025H56.0464H58.063H61.1543C61.7107 5.67974 62.1614 5.22506 62.1614 4.66452C62.1614 4.10367 61.7107 3.64899 61.1543 3.64899ZM41.0185 16.5063C41.0185 17.0668 40.5674 17.5215 40.0112 17.5215C39.4548 17.5215 39.0042 17.0668 39.0042 16.5063V8.63771C39.0042 8.07685 39.4548 7.62217 40.0112 7.62217C40.5674 7.62217 41.0185 8.07685 41.0185 8.63771V16.5063ZM44.696 21.5932H40.2716C40.0228 21.5932 39.8213 21.7965 39.8213 22.0472V28.1499H44.696V21.5932ZM51.2317 28.1499H46.7095V21.5932H51.2317V28.1499ZM53.2463 28.1499H58.1207V22.0472C58.1207 21.7965 57.9191 21.5932 57.6704 21.5932H53.2463V28.1499ZM60.1356 21.6539V28.1496H61.1545C61.7108 28.1496 62.1617 28.6044 62.1617 29.1651C62.1617 29.7261 61.7108 30.1804 61.1545 30.1804H36.7874C36.2314 30.1804 35.7805 29.7261 35.7805 29.1651C35.7805 28.6044 36.2314 28.1496 36.7874 28.1496H37.8067V21.6539C37.8067 20.4986 38.7355 19.5623 39.8812 19.5623H58.0608C59.2067 19.5623 60.1356 20.4986 60.1356 21.6539ZM45.7067 17.536C46.263 17.536 46.7137 17.0814 46.7137 16.5209V8.6522C46.7137 8.09133 46.263 7.63665 45.7067 7.63665C45.1504 7.63665 44.6997 8.09133 44.6997 8.6522V16.5209C44.6997 17.0814 45.1504 17.536 45.7067 17.536ZM59.3944 12.8741C59.3944 12.1543 58.8154 11.5707 58.1014 11.5707H52.4484L54.6152 9.38812C55.2517 8.74713 54.8013 7.65017 53.9019 7.65017C53.634 7.65017 53.3772 7.75733 53.1879 7.94852L50.0897 11.057C49.762 11.3859 49.5776 11.8329 49.5776 12.2988C49.5776 13.0187 50.1566 13.602 50.8705 13.602H56.5304L54.3674 15.7829C53.7319 16.4236 54.182 17.5192 55.0808 17.5192C55.3483 17.5192 55.6051 17.4121 55.794 17.2212L58.8835 14.1153C59.2106 13.7868 59.3944 13.3405 59.3944 12.8751V12.8741ZM77.2201 25.8387V21.6899C77.2201 20.3634 76.1533 19.288 74.8375 19.288C73.5215 19.288 72.4551 20.3634 72.4551 21.6899V25.8387C72.4551 27.1654 73.5215 28.2408 74.8375 28.2408C76.1533 28.2408 77.2201 27.1654 77.2201 25.8387ZM79.1833 9.71552C79.1833 10.2523 78.7517 10.6877 78.2193 10.6877H75.7768V17.4284C77.7173 17.8613 79.1694 19.6031 79.1694 21.6896V25.8384C79.1694 28.2502 77.23 30.2054 74.8374 30.2054C72.4451 30.2054 70.5058 28.2502 70.5058 25.8384V21.6896C70.5058 19.6213 71.9334 17.8929 73.8485 17.4414V10.6877H71.4061C70.8733 10.6877 70.4417 10.2523 70.4417 9.71552C70.4417 9.17877 70.8733 8.74331 71.4061 8.74331H73.8485V2.64259C73.8485 2.10584 74.2802 1.6707 74.8126 1.6707C75.3452 1.6707 75.7768 2.10584 75.7768 2.64259V8.74331H78.2193C78.7517 8.74331 79.1833 9.17877 79.1833 9.71552ZM67.6289 3.23908C67.3936 2.73065 66.7944 2.51112 66.2904 2.74791C65.7863 2.98503 65.5684 3.5892 65.8032 4.0973L67.0237 6.73613C67.2589 7.24422 67.8582 7.46439 68.3622 7.22728C68.8665 6.99018 69.0846 6.38632 68.8494 5.8779L67.6289 3.23908ZM66.2904 9.44431C66.7944 9.2072 67.3936 9.42705 67.6289 9.93548L68.8494 12.5743C69.0846 13.0827 68.8665 13.6866 68.3622 13.9237C67.8582 14.1608 67.2589 13.9406 67.0237 13.4325L65.8032 10.7937C65.5684 10.2856 65.7863 9.68143 66.2904 9.44431ZM67.326 16.8805C66.7698 16.8805 66.3191 17.3351 66.3191 17.896V29.1904C66.3191 29.7512 66.7698 30.2059 67.326 30.2059C67.8824 30.2059 68.3334 29.7512 68.3334 29.1904V17.896C68.3334 17.3351 67.8824 16.8805 67.326 16.8805ZM88.0501 13.5265V16.4106H83.0684V13.5265H88.0501ZM88.0501 6.84603C88.0501 5.45919 86.9348 4.33488 85.5592 4.33488C84.1835 4.33488 83.0684 5.45919 83.0684 6.84603V11.5815H88.0501V6.84603ZM89.9991 26.249C89.9991 26.2546 89.9978 26.2589 89.9974 26.2644C89.9976 26.2681 89.9982 26.2717 89.9987 26.2755C89.9993 26.2798 90.0001 26.2842 90.0001 26.2888C90.0001 28.6869 89.1768 30.1629 87.1315 30.1578C86.592 30.1562 86.1461 29.7164 86.1546 29.1722C86.1616 28.6915 86.54 28.2238 87.1315 28.187C88.0471 28.1301 88.0464 27.3827 88.0456 26.3827C88.0456 26.3517 88.0454 26.3204 88.0454 26.2888C88.0454 26.2802 88.0467 26.272 88.0478 26.2637C88.0487 26.2576 88.0496 26.2515 88.05 26.2452V18.3547H83.0683V29.1803C83.0683 29.7233 82.6318 30.1629 82.0936 30.1629C81.5554 30.1629 81.1189 29.7233 81.1189 29.1803V6.84672C81.1189 4.37465 83.1067 2.37061 85.5591 2.37061C88.0112 2.37061 89.9991 4.37465 89.9991 6.84672V26.249Z" fill="#2B2F3B"/>
<path fill-rule="evenodd" clip-rule="evenodd" d="M14.55 20.0575C12.675 20.0575 10.9917 19.2416 9.82227 17.945C8.79136 16.7983 8.16235 15.2776 8.16235 13.6093C8.16235 10.0487 11.0228 7.16367 14.55 7.16367C16.8555 7.16367 18.874 8.39482 19.993 10.2415C19.9953 10.2442 19.9975 10.2461 19.9975 10.2487C20.593 11.229 20.9351 12.3782 20.9351 13.6093C20.9351 17.1698 18.0773 20.0575 14.55 20.0575ZM28.592 27.006C26.8937 25.0895 25.3972 22.8787 25.3934 14.7531C25.4011 14.5659 25.4018 14.5596 25.4018 14.37C25.4018 11.0525 24.2184 8.04529 22.3003 5.85365C22.4451 5.66604 22.5937 5.44295 22.741 5.19443C22.7601 5.16349 22.7768 5.13254 22.7934 5.10161C22.9668 4.80522 23.1381 4.47594 23.2974 4.12516C23.4543 3.77894 23.5968 3.41871 23.7183 3.06044C23.7325 3.01517 23.7493 2.97022 23.7609 2.92462C23.8346 2.69305 23.8985 2.4618 23.9513 2.23968C24.1938 1.187 24.1483 0.284811 23.5449 0.0294626C23.202 -0.116123 22.7884 0.294266 22.3081 0.898112C22.2916 0.919603 22.2726 0.941106 22.2535 0.96488C22.2322 0.991261 22.2109 1.01764 22.1892 1.04598C21.8755 1.4518 21.5285 1.927 21.1505 2.36604C21.1219 2.39959 21.0934 2.43281 21.065 2.46636C21.0482 2.48525 21.0317 2.50447 21.0149 2.52369C20.6017 2.98911 20.1525 3.40308 19.6677 3.64312C18.1576 2.74027 16.434 2.2286 14.6046 2.2286C12.7282 2.2286 10.9636 2.76665 9.42613 3.71347C8.88177 3.48972 8.38101 3.03829 7.9242 2.52369C7.9074 2.50447 7.89091 2.48525 7.87444 2.46636C7.84568 2.43281 7.81725 2.39959 7.78851 2.36604C7.41051 1.927 7.06354 1.4518 6.74985 1.04598C6.72852 1.01764 6.70688 0.991261 6.68556 0.96488C6.66649 0.941106 6.64776 0.919603 6.63096 0.898112C6.15056 0.294266 5.73704 -0.116123 5.39458 0.0294626C4.79077 0.284811 4.74554 1.187 4.98784 2.23968C5.04017 2.4618 5.10446 2.69305 5.17812 2.92462C5.19008 2.97022 5.20655 3.01517 5.22077 3.06044C5.34224 3.41871 5.48504 3.77894 5.64173 4.12516C5.801 4.47594 5.97222 4.80522 6.14603 5.10161C6.1625 5.13254 6.17899 5.16349 6.19805 5.19443C6.39027 5.51883 6.58475 5.79959 6.76988 6.01552C4.93389 8.19219 3.80735 11.1333 3.80735 14.37C3.80735 14.628 3.79379 14.7195 3.80767 14.9736C3.77504 22.9298 2.18878 25.1058 0.504962 27.006C-0.702341 28.3684 0.324694 31.2294 2.84493 29.9526C7.9242 27.3796 9.10824 32.1553 14.5422 31.9961C19.9762 31.8368 21.0149 27.3796 26.2521 29.9526C28.7875 31.1987 29.7991 28.3684 28.592 27.006Z" fill="#5475E9"/>
<path fill-rule="evenodd" clip-rule="evenodd" d="M20.4308 12.6744C20.4308 14.4769 18.9837 15.9376 17.1982 15.9376C15.4129 15.9376 13.9656 14.4769 13.9656 12.6744C13.9656 10.872 15.4129 9.41088 17.1982 9.41088C18.9837 9.41088 20.4308 10.872 20.4308 12.6744Z" fill="#2B2F3B"/>
</svg>
