<svg xmlns="http://www.w3.org/2000/svg" xmlns:xlink="http://www.w3.org/1999/xlink" fill="none" version="1.1" width="24" height="24" viewBox="0 0 24 24"><g style="mix-blend-mode:passthrough"><g><g style="mix-blend-mode:passthrough"><rect x="0" y="0" width="24" height="24" rx="0" fill="#DADFE6" fill-opacity="0"/></g><g style="mix-blend-mode:passthrough"><g><g style="mix-blend-mode:passthrough"><path d="M3.014081741088867,16.199199999999998C3.014081741088867,16.199199999999998,7.894197741088867,6.668175,7.894197741088867,6.668175C8.342167741088868,5.793255,9.577537741088868,5.77333,10.053107741088867,6.633366C10.053107741088867,6.633366,15.303187741088868,16.1274,15.303187741088868,16.1274C15.834487741088868,17.0881,14.945987741088867,18.215600000000002,13.896087741088866,17.9131C13.896087741088866,17.9131,9.571657741088867,16.6676,9.571657741088867,16.6676C9.351607741088866,16.6042,9.118337741088867,16.6042,8.898267741088867,16.6675C8.898267741088867,16.6675,4.439327741088867,17.950200000000002,4.439327741088867,17.950200000000002C3.4076017410888673,18.2471,2.5223907410888673,17.1595,3.014081741088867,16.199199999999998C3.014081741088867,16.199199999999998,3.014081741088867,16.199199999999998,3.014081741088867,16.199199999999998Z" fill="#3970E3" fill-opacity="1"/></g><g style="mix-blend-mode:passthrough"><path d="M17.54432781921387,17.3326C17.54432781921387,17.3326,19.559947819213868,17.9131,19.559947819213868,17.9131C20.609877819213867,18.215600000000002,21.498337819213866,17.0881,20.967067819213867,16.1274C20.967067819213867,16.1274,15.716997819213868,6.633366,15.716997819213868,6.633366C15.241387819213866,5.77333,14.006037819213867,5.793255,13.558060819213868,6.668175C13.558060819213868,6.668175,12.693967819213867,8.35578,12.693967819213867,8.35578C12.693967819213867,8.35578,17.54432781921387,17.3326,17.54432781921387,17.3326C17.54432781921387,17.3326,17.54432781921387,17.3326,17.54432781921387,17.3326Z" fill="#3970E3" fill-opacity="0.5"/></g></g></g></g></g></svg>