<svg xmlns="http://www.w3.org/2000/svg" xmlns:xlink="http://www.w3.org/1999/xlink" fill="none" version="1.1" width="24" height="24" viewBox="0 0 24 24"><clipPath id="master_svg0_2203_7151/908_27928" transform="matrix(0,-1,1,0,-24,24)"><rect x="0" y="24" width="24" height="23.999998092651367" rx="0"/></clipPath><g style="mix-blend-mode:passthrough"><g><g clip-path="url(#master_svg0_2203_7151/908_27928)" style="mix-blend-mode:passthrough"><g transform="matrix(0,-1,1,0,-24,24)"><g style="mix-blend-mode:passthrough"><g><g style="mix-blend-mode:passthrough"></g><g style="mix-blend-mode:passthrough"><path d="M16,35.155899046325686C16,35.155899046325686,16,41.732989046325685,16,41.732989046325685C16,42.19881904632568,16.484966,42.457809046325686,16.812348,42.166799046325686C16.812348,42.166799046325686,20.511960000000002,38.87825904632568,20.511960000000002,38.87825904632568C20.76216,38.65585904632568,20.76216,38.23302904632568,20.511960000000002,38.01062904632568C20.511960000000002,38.01062904632568,16.812348,34.722086046325686,16.812348,34.722086046325686C16.484966,34.43108004632568,16,34.690065046325685,16,35.155899046325686C16,35.155899046325686,16,35.155899046325686,16,35.155899046325686Z" transform="matrix(0,1,-1,0,49.999999046325684,17.999999046325684)" fill="#787782" fill-opacity="1"/></g></g></g></g></g></g></g></svg>