<svg xmlns="http://www.w3.org/2000/svg" xmlns:xlink="http://www.w3.org/1999/xlink" fill="none" version="1.1" width="36" height="36" viewBox="0 0 36 36"><defs><mask id="master_svg0_6031_12390/3899_00094/3901_9213/6019_05963"><g style="mix-blend-mode:passthrough"><path d="M7,28C7,29.6569,8.34315,31,10,31L26,31C27.6569,31,29,29.6569,29,28L29,18.5L29,12.973939999999999C29,12.50737,28.83,12.05679,28.5217,11.706520000000001L26.25,9.125L24.073,6.651088C23.7087,6.2371929999999995,23.184,6,22.6327,6L18,6L10,6C8.34315,6,7,7.34315,7,9L7,28Z" fill="#FFFFFF" fill-opacity="1"/></g></mask></defs><g style="mix-blend-mode:passthrough"><g><g style="mix-blend-mode:passthrough"><rect x="0" y="0" width="36" height="36" rx="0" fill="#FFFFFF" fill-opacity="0"/></g><g style="mix-blend-mode:passthrough"><g><g style="mix-blend-mode:passthrough"><path d="M7,28C7,29.6569,8.34315,31,10,31L26,31C27.6569,31,29,29.6569,29,28L29,18.5L29,12.973939999999999C29,12.50737,28.83,12.05679,28.5217,11.706520000000001L26.25,9.125L24.073,6.651088C23.7087,6.2371929999999995,23.184,6,22.6327,6L18,6L10,6C8.34315,6,7,7.34315,7,9L7,28Z" fill="#746EF6" fill-opacity="1"/></g><path d="M23.041667938232422,6.043920531706452L23.041667938232422,11.290725248086453C23.041667938232422,11.820505248086452,23.471140938232423,12.249975248086454,24.000921938232423,12.249975248086454L28.85881793823242,12.249975248086454C28.778497938232423,12.052855248086452,28.66529793823242,11.868895248086453,28.522397938232423,11.706505248086453L26.250647938232422,9.124975248086452L24.07360793823242,6.651068248086452C23.800872938232423,6.341141248086452,23.43816393823242,6.130292248086453,23.041667938232422,6.043920531706452Z" fill-rule="evenodd" fill="#514AE5" fill-opacity="1"/><g style="mix-blend-mode:passthrough"><rect x="11.583984375" y="14.9287109375" width="12.833333015441895" height="2.6785717010498047" rx="1" fill="#F1F0FF" fill-opacity="1"/></g><g style="mix-blend-mode:passthrough"><rect x="11.583984375" y="20" width="6" height="3" rx="1" fill="#F1F0FF" fill-opacity="1"/></g><g style="mix-blend-mode:passthrough"><g mask="url(#master_svg0_6031_12390/3899_00094/3901_9213/6019_05963)"><path d="M28.999958992004395,21.40793Q28.872058992004394,21.24435,28.725758992004394,21.09615Q28.579458992004394,20.947941,28.416758992004397,20.817066Q28.253958992004392,20.68619,28.076758992004393,20.574375Q27.899658992004394,20.46256,27.710558992004394,20.371282Q27.521358992004394,20.280003,27.322758992004395,20.210468Q27.124158992004396,20.140933,26.918558992004392,20.094059Q26.713058992004395,20.0471853,26.503358992004394,20.0235927Q26.293758992004392,20,26.082658992004397,20Q25.902508992004392,20,25.723248992004393,20.0171974Q25.543978992004394,20.0343948,25.367308992004396,20.068624Q25.190638992004395,20.102853,25.018258992004395,20.153785Q24.845888992004394,20.204716,24.679468992004395,20.271859Q24.513048992004393,20.339002,24.354188992004396,20.42171Q24.195318992004395,20.504418,24.045548992004395,20.601894Q23.895778992004395,20.699371,23.756528992004394,20.810677Q23.617288992004394,20.921983,23.489918992004394,21.04605Q23.362548992004395,21.17011,23.248268992004395,21.30574Q23.133998992004393,21.44137,23.033918992004395,21.58725Q22.933838992004397,21.73313,22.848928992004396,21.88787Q22.764018992004395,22.0426,22.695078992004394,22.2047Q22.626148992004396,22.3668,22.573858992004396,22.5347Q22.521568992004394,22.7026,22.486428992004395,22.87468Q22.451288992004393,23.04676,22.433628992004394,23.22137Q22.415978992004394,23.39598,22.415978992004394,23.57143L22.416018992004396,23.58844Q22.187498992004393,23.57129,21.958288992004395,23.57129Q21.812018992004393,23.57129,21.665928992004396,23.57828Q21.519838992004395,23.58527,21.374278992004395,23.59924Q21.228708992004393,23.6132,21.084018992004395,23.6341Q20.939338992004394,23.65501,20.795878992004393,23.6828Q20.652418992004392,23.7106,20.510538992004395,23.74521Q20.368648992004395,23.77983,20.228678992004394,23.82119Q20.088708992004396,23.86255,19.950988992004394,23.91054Q19.813268992004396,23.95854,19.678138992004396,24.01306Q19.542998992004396,24.06758,19.410778992004396,24.12849Q19.278548992004396,24.18941,19.149548992004394,24.25657Q19.020558992004396,24.32373,18.895098992004396,24.39697Q18.769638992004396,24.47021,18.648018992004395,24.54937Q18.526398992004395,24.62852,18.408918992004395,24.71339Q18.291428992004395,24.79826,18.178368992004394,24.88864Q18.065298992004394,24.97902,17.956918992004393,25.0747Q17.848538992004393,25.17037,17.745118992004393,25.27112Q17.641688992004394,25.371859999999998,17.543458992004396,25.477420000000002Q17.445228992004395,25.58298,17.352438992004394,25.69311Q17.259648992004394,25.80324,17.172508992004396,25.91768Q17.085378992004394,26.03211,17.004118992004393,26.150570000000002Q16.922855992004393,26.26903,16.847658992004394,26.39123Q16.772461992004395,26.51343,16.703510992004393,26.63908Q16.634560992004396,26.76472,16.572022992004396,26.89351Q16.509484992004396,27.02231,16.453509992004395,27.15393Q16.397534992004395,27.28555,16.348258992004393,27.4197Q16.298981992004393,27.55384,16.256522992004395,27.690170000000002Q16.214062992004393,27.82651,16.178522992004396,27.96471Q16.142981992004394,28.10291,16.114446992004396,28.24264Q16.085911092004395,28.38237,16.064448992004394,28.5233Q16.042986892004393,28.66423,16.028649992004393,28.80601Q16.014313092004393,28.947789999999998,16.007136062004395,29.09009Q15.999958992004395,29.232390000000002,15.999958992004395,29.374859999999998Q15.999958992004395,30.204,16.238333992004396,31L27.081458992004393,31C28.141058992004396,31,28.999958992004395,30.1411,28.999958992004395,29.081490000000002L28.999958992004395,21.40793Z" fill-rule="evenodd" fill="#837DFF" fill-opacity="1"/></g></g><g style="mix-blend-mode:passthrough"><path d="M20.5346917,22.330592175Q20.4624993,22.441768875,20.5842013,22.678850875L21.9592025,23.571711875Q25.1675325,24.910991875,26.0842025,27.589561875C26.0842025,25.803851875,24.7092025,23.571711875,22.4175325,22.678850875Q20.7343785,22.023074875,20.5346917,22.330592175Z" fill="#746DFF" fill-opacity="1"/></g></g></g></g></g></svg>